<?xml version="1.0" encoding="utf-8"?>
<!-- Generator: Adobe Illustrator 22.1.0, SVG Export Plug-In . SVG Version: 6.00 Build 0)  -->
<svg version="1.1" id="Слой_1" xmlns="http://www.w3.org/2000/svg" xmlns:xlink="http://www.w3.org/1999/xlink" x="0px" y="0px"
	 viewBox="0 0 353.8 118.3" style="enable-background:new 0 0 353.8 118.3; shape-rendering:geometricPrecision; text-rendering:geometricPrecision; image-rendering:optimizeQuality; fill-rule:evenodd; clip-rule:evenodd" xml:space="preserve">
<style type="text/css">
	.st0{fill:#FFFFFF;}
</style>
<g id="Слой_x0020_1">
	<g id="_2517046722368">
		<path class="st0" d="M69.9,0.2c-12.7,2.7-9.1,23.6,3.7,21.1c2.7-0.5,4.9-2.6,6.1-4.4C84.7,9.4,78.8-1.7,69.9,0.2L69.9,0.2z"/>
		<path class="st0" d="M172.5,84.6h-16V52.2l-20,32.3h-13.6V56.1c-0.3-4.4,0.4-24.8,16-24.8v28.9l18.4-28.9h15.3L172.5,84.6
			L172.5,84.6z M336.8,70.3V58.8c-2.9,0.3-5.2,0.5-6.9,0.8c-1.8,0.2-3.5,0.6-5.2,1.2c-1.5,0.5-2.6,1.3-3.5,2.4
			c-0.8,1.1-1.2,2.5-1.2,4.2c0,2.6,0.7,4.3,2,5.3c1.4,1,3.4,1.4,6.1,1.4c1.5,0,3-0.3,4.5-1C334.1,72.5,335.5,71.5,336.8,70.3
			L336.8,70.3z M336.8,78.7c-1.2,1-2.2,1.9-3.1,2.6c-0.9,0.8-2.2,1.5-3.7,2.3c-1.5,0.7-3,1.3-4.4,1.7c-1.4,0.4-3.4,0.6-6,0.6
			c-4.8,0-8.8-1.6-12-4.9c-3.2-3.3-4.8-7.3-4.8-12.3c0-4.1,0.8-7.4,2.4-9.8c1.6-2.5,3.9-4.5,7-6c3.1-1.5,6.7-2.5,11-3.1
			c4.3-0.6,8.8-1,13.8-1.4v-0.3c0-3-1.1-5.1-3.3-6.2c-2.2-1.1-5.5-1.7-9.9-1.7c-2,0-4.3,0.4-7,1.1c-2.7,0.7-5.3,1.7-7.9,2.8h-1.4V31
			c1.7-0.5,4.4-1.1,8.2-1.7c3.8-0.7,7.6-1,11.4-1c9.4,0,16.2,1.6,20.5,4.7c4.3,3.1,6.4,7.9,6.4,14.4v37.2h-17L336.8,78.7L336.8,78.7
			z M237.1,49.1c4,0,7.3,3.3,7.3,7.3c0,4-3.3,7.3-7.3,7.3c-4,0-7.3-3.3-7.3-7.3S233,49.1,237.1,49.1z M225.1,69
			c0,3.2-0.7,5.8-2.2,8.1c-1.4,2.2-3.4,4-5.8,5.3c-2.3,1.3-5,2.2-8.1,2.8c-3.1,0.6-6.4,0.9-9.9,0.9c-4.5,0-8.5-0.4-12.1-1.3
			c-3.6-0.8-7-1.8-10.1-3V68.7h1.8c2.4,1.4,5.1,2.6,8.1,3.6c3,1,6,1.5,9,1.5c1.1,0,2.5-0.1,4.1-0.2c1.6-0.2,2.9-0.4,3.8-0.8
			c1.4-0.5,2.4-1.2,3-2c0.6-0.8,0.9-1.8,0.9-3.1c0-1.4-0.3-2.5-1-3.3c-0.6-0.8-1.5-1.4-2.7-1.8c-1.1-0.4-2.4-0.6-3.9-0.7
			c-1.5-0.1-3.1-0.1-4.8-0.1H189V50.9h4.8c1.2,0,2.7,0,4.4-0.1c1.7-0.1,3.1-0.2,4.2-0.5c1.3-0.3,2.3-0.9,3.1-1.5
			c0.7-0.7,1.1-1.7,1.1-3.2c0-1-0.3-1.9-0.9-2.5c-0.6-0.7-1.5-1.2-2.5-1.6c-0.9-0.3-1.9-0.6-3.1-0.7c-1.2-0.2-2.4-0.2-3.7-0.2
			c-2.4,0-4.9,0.4-7.6,1.2c-2.7,0.8-5.1,1.8-7.3,2.9h-1.8v-13c1.8-0.6,4.7-1.3,8.6-2.1c3.9-0.8,7.7-1.2,11.3-1.2
			c3.3,0,6.3,0.2,9,0.7c2.8,0.5,5.3,1.3,7.8,2.6c2.3,1.2,4.1,2.7,5.5,4.7c1.4,1.9,2.1,4.3,2.1,7.1c0,2.9-0.9,5.5-2.8,7.8
			c-1.8,2.3-4.1,3.9-6.7,4.7v0.4c3.4,0.9,6,2.5,7.8,4.7C224.2,63.2,225.1,65.8,225.1,69L225.1,69z"/>
		<path class="st0" d="M283.2,103.6h-3.9l-3.5-4.7h-0.8v4.7h-3.3V92.1h3.3v4.7c0.5,0,0.9-0.1,1.1-0.3c0.2-0.2,0.6-0.6,0.9-1.2
			c0.1-0.2,0.2-0.4,0.3-0.6c0.1-0.2,0.2-0.5,0.3-0.6c0.4-0.7,0.8-1.2,1.4-1.5c0.5-0.3,1.3-0.4,2.1-0.4c0.3,0,0.5,0,0.7,0
			c0.2,0,0.3,0,0.4,0v2.5h-0.8c-0.4,0-0.7,0.1-1,0.3c-0.3,0.2-0.6,0.6-0.8,1.2c-0.2,0.5-0.4,0.8-0.6,1.1c-0.2,0.2-0.4,0.4-0.6,0.5
			L283.2,103.6L283.2,103.6z M294.3,103.6H291v-9.3h-3.3c0,0.4,0,0.9-0.1,1.3c0,0.4,0,0.8-0.1,1.1c-0.1,1-0.2,1.9-0.3,2.6
			c-0.1,0.7-0.3,1.3-0.5,1.8c-0.2,0.5-0.4,0.9-0.6,1.2c-0.2,0.3-0.4,0.5-0.6,0.7c-0.3,0.2-0.6,0.4-1,0.6c-0.4,0.1-0.8,0.2-1.2,0.2
			c-0.3,0-0.6,0-0.9,0c-0.3,0-0.5,0-0.6,0v-2.5h0.1c0.1,0,0.1,0,0.2,0c0.1,0,0.1,0,0.2,0c0.1,0,0.3,0,0.6-0.1c0.2,0,0.4-0.1,0.5-0.2
			c0.4-0.3,0.7-0.9,0.9-1.6c0.2-0.7,0.3-1.8,0.4-3.2c0-0.6,0.1-1.2,0.1-1.7c0-0.5,0-1.2,0.1-2.2h9.6L294.3,103.6L294.3,103.6z
			 M306.4,92.1l-4.3,9.2c-0.3,0.5-0.5,1-0.9,1.3c-0.3,0.3-0.6,0.5-1,0.7c-0.4,0.2-0.7,0.3-1,0.3c-0.3,0.1-0.7,0.1-1.1,0.1
			c-0.4,0-0.9,0-1.4,0c-0.5,0-0.9,0-1.1,0v-2.4h0.2c0.1,0,0.1,0,0.2,0c0.1,0,0.3,0,0.4,0c0.1,0,0.3,0,0.5,0c0.2,0,0.3,0,0.4,0
			c0.4,0,0.8,0,1.1-0.1c0.3-0.1,0.6-0.2,0.7-0.4l-4.8-8.6h3.5l2.8,5.4l2.4-5.4H306.4L306.4,92.1z M316.9,99.9c0,0.6-0.1,1.1-0.4,1.5
			c-0.2,0.5-0.6,0.9-1,1.2c-0.5,0.4-1,0.6-1.6,0.8c-0.6,0.1-1.3,0.2-2.1,0.2h-5.3V92.1h9.4v2.2h-6.2v2.1h2.1c0.8,0,1.5,0,2.1,0.2
			c0.6,0.1,1.2,0.3,1.7,0.7c0.4,0.3,0.8,0.7,1,1.2C316.8,98.9,316.9,99.4,316.9,99.9L316.9,99.9z M313.5,100c0-0.2,0-0.4-0.1-0.5
			c0-0.2-0.1-0.3-0.3-0.5c-0.2-0.1-0.4-0.3-0.6-0.3c-0.3-0.1-0.7-0.1-1.1-0.1h-1.7v2.9h1.7c0.7,0,1.2-0.1,1.6-0.4
			C313.3,100.9,313.5,100.5,313.5,100L313.5,100z"/>
		<path class="st0" d="M306.8,85.8h-19l-17.2-20.9h-2.2v41.1c-62.5,0-125.1,0-187.6,0l-0.1,12.3H64.7V106l-7.5,0
			c-16.5,0-33.5,1.7-45.5-12C5.5,86.9,2.3,78.9,0.6,66.8c-1.6-11,0.2-24.2,4.6-32.5C20.8,4.5,54.3,7.8,71.5,36.9
			C87,10.6,115.9,5.4,132.9,26.7c-5.6,1.7-9.8,5.7-12.3,11.4c-0.7,1.6-1.3,3.3-1.8,5.2c-4-8.5-9.1-11.9-14.3-11.8
			c-9.9,0.1-20.1,12.6-23.5,26.3l-0.1,30.6l15.4,0c10-0.2,17.2-4.5,21.3-11.5v11.6l135.3-0.1V28.8h24.9c3.4,0,6.4,0.2,9,0.6
			c2.6,0.4,4.9,1.2,7.1,2.5c2.2,1.3,4,3,5.3,5c1.3,2,2,4.5,2,7.6c0,4.4-1.1,7.9-3.2,10.6c-2.1,2.7-7.4,6.2-11.9,6.5L306.8,85.8
			L306.8,85.8z M204.9,97.3c0,1.4-0.5,2.4-1.5,3.2c-1,0.8-2.3,1.3-3.9,1.4v1.2h-3.1v-1.2c-1.6-0.1-2.9-0.6-3.9-1.4
			c-1-0.8-1.5-1.9-1.5-3.3c0-1.4,0.5-2.5,1.5-3.2c1-0.8,2.3-1.2,3.9-1.3v-1.1h3.1v1.1c1.6,0.1,2.9,0.5,3.9,1.3
			C204.4,94.8,204.9,95.9,204.9,97.3L204.9,97.3z M201.7,97.3c0-0.7-0.2-1.3-0.6-1.8c-0.4-0.5-0.9-0.7-1.6-0.9v5.4
			c0.8-0.2,1.4-0.5,1.7-0.9C201.6,98.7,201.7,98,201.7,97.3z M196.4,100v-5.4c-0.7,0.1-1.3,0.4-1.6,0.9c-0.4,0.5-0.6,1-0.6,1.7
			c0,0.8,0.2,1.4,0.5,1.9C195.1,99.6,195.7,99.9,196.4,100z M217.3,103.1h-3v-7.5l-4.7,7.5h-2.8V91.7h3v6.8l4.3-6.8h3.2L217.3,103.1
			L217.3,103.1z M222.3,103.1v-9.2h-3.6v-2.2H229v2.2h-3.6v9.2H222.3z M240.7,103.1h-3.1v-5h-4.2v5h-3.1V91.7h3.1v4.2h4.2v-4.2h3.1
			V103.1z M243.3,103.1V91.7h8.3v2.2h-5.2v2h4.8V98h-4.8v2.9h5.2v2.2H243.3L243.3,103.1z M259.1,103.3c-1.8,0-3.3-0.5-4.4-1.5
			c-1.1-1-1.6-2.5-1.6-4.4c0-1.8,0.5-3.2,1.6-4.3c1.1-1.1,2.5-1.6,4.4-1.6c0.5,0,0.9,0,1.3,0.1c0.4,0.1,0.8,0.1,1.1,0.2
			c0.3,0.1,0.6,0.2,0.9,0.3c0.3,0.1,0.6,0.2,0.8,0.3v2.7h-0.3c-0.1-0.1-0.3-0.3-0.6-0.4c-0.2-0.2-0.5-0.3-0.8-0.5
			c-0.3-0.2-0.6-0.3-0.9-0.4c-0.3-0.1-0.7-0.2-1.1-0.2c-0.4,0-0.8,0.1-1.2,0.2c-0.4,0.1-0.7,0.4-1.1,0.7c-0.3,0.3-0.6,0.7-0.8,1.2
			c-0.2,0.5-0.3,1.1-0.3,1.7c0,0.7,0.1,1.3,0.3,1.8c0.2,0.5,0.5,0.9,0.8,1.2c0.3,0.3,0.7,0.5,1.1,0.6c0.4,0.1,0.8,0.2,1.2,0.2
			c0.4,0,0.8-0.1,1.2-0.2c0.4-0.1,0.7-0.3,0.9-0.4c0.3-0.2,0.5-0.3,0.7-0.5c0.2-0.2,0.4-0.3,0.5-0.4h0.3v2.7
			c-0.2,0.1-0.5,0.2-0.8,0.3c-0.3,0.1-0.6,0.2-0.9,0.3c-0.4,0.1-0.7,0.2-1.1,0.2C260.1,103.3,259.7,103.3,259.1,103.3L259.1,103.3z
			 M285,46.2c0-1.4-0.3-2.7-0.9-3.7c-0.6-1-1.6-1.8-3-2.4c-1-0.4-2-0.6-3.2-0.7c-1.2-0.1-2.7-0.2-4.4-0.2h-5.2v15.4h4.4
			c2.2,0,4-0.1,5.5-0.4c1.5-0.2,2.8-0.8,3.8-1.6c1-0.7,1.7-1.6,2.2-2.6C284.7,49.1,285,47.8,285,46.2L285,46.2z M64.7,57.5
			c-3.2-10.1-12.9-25.9-24.8-26.2c-8.7-0.2-16.4,7.4-18.2,21.6c-2.5,20.1,6.4,35.3,25.6,35.4l17.4,0V57.5z"/>
	</g>
</g>
</svg>
